# xmcd
#
# Track frame offsets:
#	150
#	13797
#	30190
#	48576
#	66316
#	80338
#	107415
#	123482
#	138126
#	152991
#	169060
#	183072
#	196674
#	213882
#	234945
#	249000
#	269734
#	282760
#	308337
#
# Disc length: 4331 seconds
#
# Revision: 1
# Processed by: cddbd v1.5.2PL0 Copyright (c) Steve Scherf et al.
# Submitted via: EZCDAudioConverter 8.2.2.1
#
DISCID=ec10e913
DTITLE=Various Artist - Say It Loud! A Celebration Of Black Music In America 
DTITLE=[CD5]
DYEAR=2001
DGENRE=Soul-Jazz, Rock and Roll, Calypso, Bop, Country, Field Recording, Politic
DGENRE=al, Dixieland, Electric Blues, Country Blues, Chicago Blues, Big Band, 
DGENRE=Speech, Hip Hop, Doo Wop, Interview, Gospel, Classic Rock, Delta Blues,
DGENRE=Funk, Cool Jazz
TTITLE0=The Jackson 5 - I Want You Back
TTITLE1=Ike and Tina Turner - Thurgood Marshall - I Want To Take You Higher - Su
TTITLE1=preme Court Justice Thurgood Marshall On Segregation
TTITLE2=The Temptations - Ball Of Confusion
TTITLE3=Marvin Gaye - What's Going On
TTITLE4=Gil Scott-Heron - The Revolution Will Not Be Televised
TTITLE5=Andraé Crouch - My Tribute
TTITLE6=The Staple Singers - Respect Yourself
TTITLE7=Al Green - Melvin Van Peebles and Gordon Parks - Tired Of Being Alone - 
TTITLE7=Gordon Parks and Melvin Van Peebles On Shaft
TTITLE8=Isaac Hayes - Theme From Of Shaft
TTITLE9=Roberta Flack and Donnie Hathaway - Be Real Black For Me
TTITLE10=Quincy Jones - Sanford And Son
TTITLE11=The O'Jays - Love Train
TTITLE12=The Spinners - Ghetto Child
TTITLE13=Gladys Knight and The Pips - Midnight Train To Georgia
TTITLE14=Kool and The Gang - Jungle Boogie
TTITLE15=Barry White - You're The First, The Last, My Everything
TTITLE16=Earth, Wind and Fire - Shining Star
TTITLE17=Parliament - Chocolate City
TTITLE18=Harold Melvin and The Blue Notes - Wake Up Everybody (Part 1)
EXTD=
EXTT0=
EXTT1=
EXTT2=
EXTT3=
EXTT4=
EXTT5=
EXTT6=
EXTT7=
EXTT8=
EXTT9=
EXTT10=
EXTT11=
EXTT12=
EXTT13=
EXTT14=
EXTT15=
EXTT16=
EXTT17=
EXTT18=
PLAYORDER=
